HIERARCHY
ROOT Hips
{
	OFFSET 0.0000 0.0000 0.0000
	CHANNELS 6 Xposition Yposition Zposition Zrotation Xrotation Yrotation
	JOINT Ab
	{
		OFFSET -0.0000 8.0846 -0.0000
		CHANNELS 3 Zrotation Xrotation Yrotation
		JOINT Chest
		{
			OFFSET -0.0000 25.0068 -0.0000
			CHANNELS 3 Zrotation Xrotation Yrotation
			JOINT Neck
			{
				OFFSET -0.0000 25.0068 0.0000
				CHANNELS 3 Zrotation Xrotation Yrotation
				JOINT Head
				{
					OFFSET -0.0000 10.7556 0.0000
					CHANNELS 3 Zrotation Xrotation Yrotation
					End Site
					{
						OFFSET -0.0000 16.6222 0.0000
					}
				}
			}
			JOINT LeftCollar
			{
				OFFSET -0.0000 25.0068 0.0000
				CHANNELS 3 Zrotation Xrotation Yrotation
				JOINT LeftShoulder
				{
					OFFSET 19.5556 -0.0000 0.0000
					CHANNELS 3 Zrotation Xrotation Yrotation
					JOINT LeftElbow
					{
						OFFSET 27.1828 0.0000 0.0000
						CHANNELS 3 Zrotation Xrotation Yrotation
						JOINT LeftWrist
						{
							OFFSET 23.3157 0.0000 0.0000
							CHANNELS 3 Zrotation Xrotation Yrotation
							End Site
							{
								OFFSET 0.0000 -14.6667 0.0000
							}
						}
					}
				}
			}
			JOINT RightCollar
			{
				OFFSET -0.0000 25.0068 0.0000
				CHANNELS 3 Zrotation Xrotation Yrotation
				JOINT RightShoulder
				{
					OFFSET -19.5556 0.0000 0.0000
					CHANNELS 3 Zrotation Xrotation Yrotation
					JOINT RightElbow
					{
						OFFSET -27.1828 0.0000 0.0000
						CHANNELS 3 Zrotation Xrotation Yrotation
						JOINT RightWrist
						{
							OFFSET -23.3157 0.0000 0.0000
							CHANNELS 3 Zrotation Xrotation Yrotation
							End Site
							{
								OFFSET -0.0000 -14.6667 0.0000
							}
						}
					}
				}
			}
		}
	}
	JOINT LeftHip
	{
		OFFSET 11.7333 0.0000 0.0000
		CHANNELS 3 Zrotation Xrotation Yrotation
		JOINT LeftKnee
		{
			OFFSET -0.0000 -40.8688 0.0000
			CHANNELS 3 Zrotation Xrotation Yrotation
			JOINT LeftAnkle
			{
				OFFSET -0.0000 -44.4337 0.0000
				CHANNELS 3 Zrotation Xrotation Yrotation
				End Site
				{
					OFFSET -0.0000 -4.8889 16.6222
				}
			}
		}
	}
	JOINT RightHip
	{
		OFFSET -11.7333 0.0000 0.0000
		CHANNELS 3 Zrotation Xrotation Yrotation
		JOINT RightKnee
		{
			OFFSET -0.0000 -40.8688 0.0000
			CHANNELS 3 Zrotation Xrotation Yrotation
			JOINT RightAnkle
			{
				OFFSET -0.0000 -44.4337 0.0000
				CHANNELS 3 Zrotation Xrotation Yrotation
				End Site
				{
					OFFSET -0.0000 -4.8889 16.6222
				}
			}
		}
	}
}
MOTION
Frames: 7
Frame Time: 0.010000
-2.3673 88.7773 188.5355 2.2999 359.7278 176.1688 1.2829 359.0156 358.5540 358.9093 11.9866 358.6589 3.2480 342.9781 1.8951 1.2836 6.0355 1.3383 338.7878 358.5761 7.6565 300.7117 30.0401 354.9183 16.9142 354.2557 322.6691 82.3149 1.2075 341.9496 22.3267 359.2442 356.0846 58.0633 44.8742 10.4518 337.6537 354.1687 28.9124 277.8787 353.1601 19.5796 1.5461 358.0358 356.6342 358.9048 10.4405 359.0159 359.3055 352.4749 21.3273 1.0931 352.2615 358.8966 358.9462 18.5688 7.2185 357.2203 345.2935 338.3401 
-2.3999 88.7787 188.5331 2.3079 359.6994 176.2037 1.2630 359.0121 358.5520 358.9231 11.9899 358.6550 3.2719 343.0176 1.7926 1.1363 6.0246 1.2394 338.7795 358.5436 7.6864 300.7506 30.3166 354.8765 17.0756 354.1861 322.6823 82.2105 1.2268 342.1367 22.3110 359.2254 356.0552 58.0144 44.8860 10.4999 337.5948 354.1476 28.9874 277.9436 353.1652 19.6104 1.5397 357.9834 356.6044 358.8963 10.4782 358.9756 359.0301 352.3985 21.2952 1.0790 352.2402 358.8687 358.9401 18.5630 7.2185 357.2404 345.2854 338.3471 
-2.4372 88.7795 188.5235 2.3060 359.7013 176.2001 1.2482 359.0442 358.5604 358.9217 11.9756 358.6642 3.2521 343.0030 1.7600 1.1352 6.1042 1.2110 338.7609 358.5707 7.7229 300.7851 30.4356 354.8361 16.9736 354.2486 322.7832 82.6395 1.0871 342.3508 22.3012 359.2358 356.0753 57.9762 44.8346 10.4929 337.6627 354.1379 29.0756 277.9538 353.2329 19.6403 1.5100 357.9783 356.6209 358.8976 10.5034 359.0036 359.3810 352.4576 21.3215 1.0508 352.2553 358.8909 358.9441 18.5424 7.1992 357.1122 345.3049 338.3418 
-2.4704 88.7814 188.5157 2.3139 359.6998 176.1866 1.2512 359.0748 358.5627 358.8959 11.9715 358.6687 3.2595 343.0155 1.7440 1.1392 6.0977 1.1966 338.7785 358.5704 7.6713 300.7016 30.1226 354.9035 16.8859 354.2657 322.5774 82.2508 1.2820 341.9481 22.3122 359.2153 356.0684 57.9076 44.8607 10.5357 337.7745 354.1851 29.1413 277.7042 353.2015 20.2712 1.5056 357.9650 356.6191 358.8732 10.5392 358.9893 359.3932 352.4172 21.3419 1.0390 352.2648 358.9610 358.9600 18.5272 7.1295 357.3199 345.2758 338.3920 
-2.5110 88.7821 188.5007 2.3143 359.7211 176.1822 1.1904 359.0834 358.5821 359.0034 12.0929 358.6788 3.1418 342.8763 1.6796 1.1153 6.1855 1.1494 338.7951 358.5449 7.6901 300.6196 30.1606 354.8471 16.8889 354.2531 322.5372 82.2408 1.2797 341.9415 22.1913 359.1962 355.9987 57.7701 44.9217 10.7516 337.8040 354.1578 29.1963 277.6704 353.2373 20.3580 1.4764 357.9875 356.6727 358.8825 10.5524 358.9395 359.4124 352.4101 21.3425 1.0138 352.3100 359.0007 358.9684 18.4948 7.0471 357.3517 345.2593 338.4367 
-2.5530 88.7814 188.4846 2.3187 359.7356 176.1841 1.1650 359.1065 358.5874 359.0207 12.1148 358.6836 3.1789 342.8936 1.6568 0.9804 6.1653 1.1240 338.7813 358.5771 7.6769 300.6198 30.1801 354.8374 16.8150 354.3038 322.5614 82.2698 1.2466 341.9302 22.1723 359.2345 355.9968 57.7318 44.8674 10.7935 337.8668 354.1572 29.2461 277.6863 353.2377 20.4245 1.4592 358.0027 356.6685 358.8660 10.5748 358.9125 359.4677 352.3973 21.3747 0.9832 352.3455 359.0580 358.9910 18.4730 7.0325 357.2128 345.2969 338.3878 
-2.6040 88.7790 188.4777 2.3207 359.7247 176.1726 1.1883 359.1341 358.5829 358.9660 12.0886 358.6849 3.1379 342.9556 1.5982 0.9796 6.1488 1.0723 338.7983 358.5512 7.6757 300.5684 30.1819 354.8841 16.8460 354.2671 322.4528 82.2597 1.3051 341.9675 22.1699 359.2346 356.0167 57.6914 44.8767 10.8251 337.8089 354.1365 29.3267 277.7081 353.3101 20.4275 1.4353 357.9823 356.6496 358.8491 10.5995 358.9281 359.4856 352.3703 21.3817 0.9522 352.3358 359.0953 358.9981 18.4762 6.9904 357.2076 345.2983 338.3925 
